<svg width="17" height="24" viewBox="0 0 17 24" fill="none" xmlns="http://www.w3.org/2000/svg"><path d="M1.36 13.5c0-1.52.33-2.69 1-3.5A3.61 3.61 0 0 1 5.3 8.79c.67 0 1.25.12 1.75.35.5.21.91.53 1.24.95.32.4.56.9.72 1.5.15.57.23 1.21.23 1.92 0 1.52-.34 2.7-1.02 3.51-.68.8-1.65 1.2-2.92 1.2-.67 0-1.26-.1-1.76-.32-.5-.23-.9-.54-1.23-.95a4.22 4.22 0 0 1-.72-1.5 7.57 7.57 0 0 1-.23-1.94zm1.5 0c0 .46.03.9.12 1.31.1.42.24.79.43 1.1a2.12 2.12 0 0 0 1.89 1.04c1.63.02 2.45-1.13 2.45-3.45 0-.47-.05-.91-.15-1.33a3.32 3.32 0 0 0-.4-1.1 2.12 2.12 0 0 0-1.9-1.03c-1.63 0-2.45 1.14-2.45 3.46zm14.1-3.24h-2.81V18H12.7v-7.74H9.9V9h7.06v1.26z" fill="#000" opacity=".3"/></svg>